<?xml version="1.0" encoding="UTF-8"?>
<svg width="100px" height="100px" viewBox="0 0 100 100" version="1.1" xmlns="http://www.w3.org/2000/svg" xmlns:xlink="http://www.w3.org/1999/xlink">
    <!-- Generator: Sketch 41.2 (35397) - http://www.bohemiancoding.com/sketch -->
    <title>Artboard</title>
    <desc>Created with Sketch.</desc>
    <defs></defs>
    <g id="Page-1" stroke="none" stroke-width="1" fill="none" fill-rule="evenodd">
        <g id="Artboard" fill="#F68D11">
            <g id="Group" transform="translate(50.153409, 50.500000) rotate(-180.000000) translate(-50.153409, -50.500000) translate(0.000000, 5.000000)">
                <polyline id="path26" points="20.8972538 74.9205247 2.93007314e-14 81.1123036 2.93007314e-14 50.9273815 20.8718675 43.9616302 20.8972538 74.9205247"></polyline>
                <polyline id="path28" points="26.6246493 74.9205247 47.5219031 81.1123036 47.4493818 50.9476595 26.6246493 43.9616302 26.6246493 74.9205247"></polyline>
                <polyline id="path30" points="43.0328634 84.4148437 23.5565454 90.4340267 4.33424523 84.4148437 23.584718 79.2547699 43.0328634 84.4148437"></polyline>
                <polyline id="path32" points="73.5019881 43.9616302 52.6301207 50.9273815 52.6301207 81.1123036 73.5273744 74.9205247 73.5019881 43.9616302"></polyline>
                <polyline id="path34" points="79.2547699 74.9205247 100.152024 81.1123036 100.07927 50.9476595 79.2547699 43.9616302 79.2547699 74.9205247"></polyline>
                <polyline id="path36" points="95.662984 84.4148437 76.1866661 90.4340267 56.9643659 84.4148437 76.2148387 79.2547699 95.662984 84.4148437"></polyline>
                <polyline id="path38" points="47.4965168 1.46503657e-14 26.6246493 6.96575126 26.6246493 37.1506734 47.5219031 30.9588945 47.4965168 1.46503657e-14"></polyline>
                <polyline id="path40" points="52.6301207 30.9588945 73.5273744 37.1506734 73.4548532 6.98600612 52.6301207 -1.46503657e-14 52.6301207 30.9588945"></polyline>
                <polyline id="path42" points="69.6575126 40.4532909 50.1811947 46.4724739 30.9588945 40.4532909 50.2093673 35.2931397 69.6575126 40.4532909"></polyline>
            </g>
        </g>
    </g>
</svg>